<svg width="100" height="100" viewBox="0 0 100 100" fill="none" xmlns="http://www.w3.org/2000/svg">
<g clip-path="url(#clip0_1_2)">
<path d="M46.7169 18.8C56.0609 18.8 63.2289 20.592 68.2209 24.176C73.2769 27.696 75.8049 32.976 75.8049 40.016C75.8049 43.856 75.1009 47.152 73.6929 49.904C72.3489 52.592 70.3649 54.8 67.7409 56.528C65.1809 58.192 62.0449 59.408 58.3329 60.176C54.6209 60.944 50.4289 61.328 45.7569 61.328H38.3649V86H29.0529V20.432C31.6769 19.792 34.5889 19.376 37.7889 19.184C41.0529 18.928 44.0289 18.8 46.7169 18.8ZM47.4849 26.96C43.5169 26.96 40.4769 27.056 38.3649 27.248V53.36H45.3729C48.5729 53.36 51.4529 53.168 54.0129 52.784C56.5729 52.336 58.7169 51.632 60.4449 50.672C62.2369 49.648 63.6129 48.272 64.5729 46.544C65.5329 44.816 66.0129 42.608 66.0129 39.92C66.0129 37.36 65.5009 35.248 64.4769 33.584C63.5169 31.92 62.1729 30.608 60.4449 29.648C58.7809 28.624 56.8289 27.92 54.5889 27.536C52.3489 27.152 49.9809 26.96 47.4849 26.96Z" fill="#EF4444"/>
</g>
<defs>
<clipPath id="clip0_1_2">
<rect width="100" height="100" fill="white"/>
</clipPath>
</defs>
</svg>
